<mxfile host="app.diagrams.net" agent="Mozilla/5.0 (Windows NT 10.0; Win64; x64) AppleWebKit/537.36 (KHTML, like Gecko) Chrome/128.0.0.0 Safari/537.36 Edg/128.0.0.0" version="24.7.7">
  <diagram name="Página-1" id="f_5o46FyipwSjfgdqdsl">
    <mxGraphModel dx="1226" dy="1836" grid="1" gridSize="10" guides="1" tooltips="1" connect="1" arrows="1" fold="1" page="1" pageScale="1" pageWidth="827" pageHeight="1169" math="0" shadow="0">
      <root>
        <mxCell id="0" />
        <mxCell id="1" parent="0" />
        <mxCell id="jBRWnaGiVffGZK3ijvnU-3" value="" style="edgeStyle=orthogonalEdgeStyle;rounded=0;orthogonalLoop=1;jettySize=auto;html=1;" parent="1" source="jBRWnaGiVffGZK3ijvnU-1" edge="1">
          <mxGeometry relative="1" as="geometry">
            <mxPoint x="180" y="240" as="targetPoint" />
          </mxGeometry>
        </mxCell>
        <mxCell id="jBRWnaGiVffGZK3ijvnU-1" value="Cliente" style="whiteSpace=wrap;html=1;aspect=fixed;" parent="1" vertex="1">
          <mxGeometry x="20" y="200" width="80" height="80" as="geometry" />
        </mxCell>
        <mxCell id="jBRWnaGiVffGZK3ijvnU-8" value="" style="edgeStyle=orthogonalEdgeStyle;rounded=0;orthogonalLoop=1;jettySize=auto;html=1;" parent="1" target="jBRWnaGiVffGZK3ijvnU-7" edge="1">
          <mxGeometry relative="1" as="geometry">
            <mxPoint x="260" y="240" as="sourcePoint" />
          </mxGeometry>
        </mxCell>
        <mxCell id="jBRWnaGiVffGZK3ijvnU-11" style="edgeStyle=orthogonalEdgeStyle;rounded=0;orthogonalLoop=1;jettySize=auto;html=1;entryX=0;entryY=0.5;entryDx=0;entryDy=0;" parent="1" target="jBRWnaGiVffGZK3ijvnU-10" edge="1">
          <mxGeometry relative="1" as="geometry">
            <mxPoint x="260" y="240" as="sourcePoint" />
          </mxGeometry>
        </mxCell>
        <mxCell id="jBRWnaGiVffGZK3ijvnU-4" value="Autenticação" style="text;html=1;align=center;verticalAlign=middle;whiteSpace=wrap;rounded=0;" parent="1" vertex="1">
          <mxGeometry x="190" y="160" width="60" height="30" as="geometry" />
        </mxCell>
        <mxCell id="jBRWnaGiVffGZK3ijvnU-5" value="" style="sketch=0;points=[[0,0,0],[0.25,0,0],[0.5,0,0],[0.75,0,0],[1,0,0],[0,1,0],[0.25,1,0],[0.5,1,0],[0.75,1,0],[1,1,0],[0,0.25,0],[0,0.5,0],[0,0.75,0],[1,0.25,0],[1,0.5,0],[1,0.75,0]];outlineConnect=0;fontColor=#232F3E;fillColor=#DD344C;strokeColor=#ffffff;dashed=0;verticalLabelPosition=bottom;verticalAlign=top;align=center;html=1;fontSize=12;fontStyle=0;aspect=fixed;shape=mxgraph.aws4.resourceIcon;resIcon=mxgraph.aws4.security_identity_and_compliance;" parent="1" vertex="1">
          <mxGeometry x="182" y="80" width="78" height="78" as="geometry" />
        </mxCell>
        <mxCell id="jBRWnaGiVffGZK3ijvnU-28" style="edgeStyle=orthogonalEdgeStyle;rounded=0;orthogonalLoop=1;jettySize=auto;html=1;" parent="1" target="rupW72BS5NqMa1Pwn7X4-1" edge="1">
          <mxGeometry relative="1" as="geometry">
            <mxPoint x="557.75" y="333.2" as="sourcePoint" />
            <mxPoint x="811.75" y="278.9" as="targetPoint" />
          </mxGeometry>
        </mxCell>
        <mxCell id="jBRWnaGiVffGZK3ijvnU-7" value="Tweet-Service" style="whiteSpace=wrap;html=1;aspect=fixed;" parent="1" vertex="1">
          <mxGeometry x="432.75" y="260" width="120" height="120" as="geometry" />
        </mxCell>
        <mxCell id="jBRWnaGiVffGZK3ijvnU-10" value="Client-Service" style="whiteSpace=wrap;html=1;aspect=fixed;" parent="1" vertex="1">
          <mxGeometry x="431" y="71" width="119" height="119" as="geometry" />
        </mxCell>
        <mxCell id="jBRWnaGiVffGZK3ijvnU-13" value="" style="edgeStyle=orthogonalEdgeStyle;rounded=0;orthogonalLoop=1;jettySize=auto;html=1;" parent="1" source="jBRWnaGiVffGZK3ijvnU-12" target="jBRWnaGiVffGZK3ijvnU-1" edge="1">
          <mxGeometry relative="1" as="geometry">
            <mxPoint x="180" y="240" as="sourcePoint" />
          </mxGeometry>
        </mxCell>
        <mxCell id="rupW72BS5NqMa1Pwn7X4-7" style="edgeStyle=orthogonalEdgeStyle;rounded=0;orthogonalLoop=1;jettySize=auto;html=1;entryX=0;entryY=0.5;entryDx=0;entryDy=0;" parent="1" source="jBRWnaGiVffGZK3ijvnU-12" target="rupW72BS5NqMa1Pwn7X4-6" edge="1">
          <mxGeometry relative="1" as="geometry" />
        </mxCell>
        <mxCell id="rupW72BS5NqMa1Pwn7X4-14" style="edgeStyle=orthogonalEdgeStyle;rounded=0;orthogonalLoop=1;jettySize=auto;html=1;entryX=0;entryY=0.5;entryDx=0;entryDy=0;" parent="1" source="jBRWnaGiVffGZK3ijvnU-12" target="rupW72BS5NqMa1Pwn7X4-12" edge="1">
          <mxGeometry relative="1" as="geometry" />
        </mxCell>
        <mxCell id="jBRWnaGiVffGZK3ijvnU-12" value="" style="sketch=0;points=[[0,0,0],[0.25,0,0],[0.5,0,0],[0.75,0,0],[1,0,0],[0,1,0],[0.25,1,0],[0.5,1,0],[0.75,1,0],[1,1,0],[0,0.25,0],[0,0.5,0],[0,0.75,0],[1,0.25,0],[1,0.5,0],[1,0.75,0]];outlineConnect=0;fontColor=#232F3E;fillColor=#E7157B;strokeColor=#ffffff;dashed=0;verticalLabelPosition=bottom;verticalAlign=top;align=center;html=1;fontSize=12;fontStyle=0;aspect=fixed;shape=mxgraph.aws4.resourceIcon;resIcon=mxgraph.aws4.api_gateway;" parent="1" vertex="1">
          <mxGeometry x="181" y="200" width="78" height="78" as="geometry" />
        </mxCell>
        <mxCell id="jBRWnaGiVffGZK3ijvnU-14" value="Feed-Service" style="whiteSpace=wrap;html=1;aspect=fixed;" parent="1" vertex="1">
          <mxGeometry x="632.5" y="520.7" width="80" height="80" as="geometry" />
        </mxCell>
        <mxCell id="rupW72BS5NqMa1Pwn7X4-19" style="edgeStyle=orthogonalEdgeStyle;rounded=0;orthogonalLoop=1;jettySize=auto;html=1;" parent="1" source="jBRWnaGiVffGZK3ijvnU-15" target="jBRWnaGiVffGZK3ijvnU-10" edge="1">
          <mxGeometry relative="1" as="geometry" />
        </mxCell>
        <mxCell id="jBRWnaGiVffGZK3ijvnU-15" value="Profile-Service" style="whiteSpace=wrap;html=1;aspect=fixed;" parent="1" vertex="1">
          <mxGeometry x="680" y="190.00000000000006" width="80" height="80" as="geometry" />
        </mxCell>
        <mxCell id="jBRWnaGiVffGZK3ijvnU-42" style="edgeStyle=orthogonalEdgeStyle;rounded=0;orthogonalLoop=1;jettySize=auto;html=1;" parent="1" source="jBRWnaGiVffGZK3ijvnU-16" edge="1">
          <mxGeometry relative="1" as="geometry">
            <mxPoint x="659" y="264.2" as="sourcePoint" />
            <mxPoint x="680" y="520" as="targetPoint" />
          </mxGeometry>
        </mxCell>
        <mxCell id="rupW72BS5NqMa1Pwn7X4-20" style="edgeStyle=orthogonalEdgeStyle;rounded=0;orthogonalLoop=1;jettySize=auto;html=1;entryX=0;entryY=0.25;entryDx=0;entryDy=0;" parent="1" source="jBRWnaGiVffGZK3ijvnU-16" target="jBRWnaGiVffGZK3ijvnU-15" edge="1">
          <mxGeometry relative="1" as="geometry" />
        </mxCell>
        <mxCell id="jBRWnaGiVffGZK3ijvnU-16" value="" style="sketch=0;outlineConnect=0;fontColor=#232F3E;gradientColor=none;fillColor=#E7157B;strokeColor=none;dashed=0;verticalLabelPosition=bottom;verticalAlign=top;align=center;html=1;fontSize=12;fontStyle=0;aspect=fixed;pointerEvents=1;shape=mxgraph.aws4.topic;" parent="1" vertex="1">
          <mxGeometry x="552.75" y="243.2" width="79.75" height="68.5" as="geometry" />
        </mxCell>
        <mxCell id="jBRWnaGiVffGZK3ijvnU-23" value="" style="sketch=0;outlineConnect=0;fontColor=#232F3E;gradientColor=none;fillColor=#C925D1;strokeColor=none;dashed=0;verticalLabelPosition=bottom;verticalAlign=top;align=center;html=1;fontSize=12;fontStyle=0;aspect=fixed;pointerEvents=1;shape=mxgraph.aws4.cache_node;" parent="1" vertex="1">
          <mxGeometry x="810" y="528.2" width="58" height="65" as="geometry" />
        </mxCell>
        <mxCell id="jBRWnaGiVffGZK3ijvnU-24" style="edgeStyle=orthogonalEdgeStyle;rounded=0;orthogonalLoop=1;jettySize=auto;html=1;entryX=0.034;entryY=0.636;entryDx=0;entryDy=0;entryPerimeter=0;" parent="1" target="jBRWnaGiVffGZK3ijvnU-23" edge="1">
          <mxGeometry relative="1" as="geometry">
            <mxPoint x="720" y="569" as="sourcePoint" />
          </mxGeometry>
        </mxCell>
        <mxCell id="jBRWnaGiVffGZK3ijvnU-27" value="" style="sketch=0;points=[[0,0,0],[0.25,0,0],[0.5,0,0],[0.75,0,0],[1,0,0],[0,1,0],[0.25,1,0],[0.5,1,0],[0.75,1,0],[1,1,0],[0,0.25,0],[0,0.5,0],[0,0.75,0],[1,0.25,0],[1,0.5,0],[1,0.75,0]];outlineConnect=0;fontColor=#232F3E;fillColor=#C925D1;strokeColor=#ffffff;dashed=0;verticalLabelPosition=bottom;verticalAlign=top;align=center;html=1;fontSize=12;fontStyle=0;aspect=fixed;shape=mxgraph.aws4.resourceIcon;resIcon=mxgraph.aws4.database;" parent="1" vertex="1">
          <mxGeometry x="971.75" y="292.9" width="78" height="78" as="geometry" />
        </mxCell>
        <mxCell id="jBRWnaGiVffGZK3ijvnU-29" value="" style="sketch=0;points=[[0,0,0],[0.25,0,0],[0.5,0,0],[0.75,0,0],[1,0,0],[0,1,0],[0.25,1,0],[0.5,1,0],[0.75,1,0],[1,1,0],[0,0.25,0],[0,0.5,0],[0,0.75,0],[1,0.25,0],[1,0.5,0],[1,0.75,0]];outlineConnect=0;fontColor=#232F3E;fillColor=#C925D1;strokeColor=#ffffff;dashed=0;verticalLabelPosition=bottom;verticalAlign=top;align=center;html=1;fontSize=12;fontStyle=0;aspect=fixed;shape=mxgraph.aws4.resourceIcon;resIcon=mxgraph.aws4.database;" parent="1" vertex="1">
          <mxGeometry x="766" y="91.5" width="78" height="78" as="geometry" />
        </mxCell>
        <mxCell id="jBRWnaGiVffGZK3ijvnU-30" style="edgeStyle=orthogonalEdgeStyle;rounded=0;orthogonalLoop=1;jettySize=auto;html=1;entryX=0;entryY=0.5;entryDx=0;entryDy=0;entryPerimeter=0;" parent="1" source="jBRWnaGiVffGZK3ijvnU-10" edge="1" target="jBRWnaGiVffGZK3ijvnU-29">
          <mxGeometry relative="1" as="geometry">
            <mxPoint x="693.75" y="29.5" as="targetPoint" />
          </mxGeometry>
        </mxCell>
        <mxCell id="jBRWnaGiVffGZK3ijvnU-40" style="edgeStyle=orthogonalEdgeStyle;rounded=0;orthogonalLoop=1;jettySize=auto;html=1;entryX=0.5;entryY=1;entryDx=0;entryDy=0;entryPerimeter=0;" parent="1" source="jBRWnaGiVffGZK3ijvnU-14" target="jBRWnaGiVffGZK3ijvnU-12" edge="1">
          <mxGeometry relative="1" as="geometry" />
        </mxCell>
        <mxCell id="rupW72BS5NqMa1Pwn7X4-2" style="edgeStyle=orthogonalEdgeStyle;rounded=0;orthogonalLoop=1;jettySize=auto;html=1;" parent="1" source="rupW72BS5NqMa1Pwn7X4-1" target="jBRWnaGiVffGZK3ijvnU-27" edge="1">
          <mxGeometry relative="1" as="geometry" />
        </mxCell>
        <mxCell id="rupW72BS5NqMa1Pwn7X4-1" value="" style="sketch=0;outlineConnect=0;fontColor=#232F3E;gradientColor=none;fillColor=#C925D1;strokeColor=none;dashed=0;verticalLabelPosition=bottom;verticalAlign=top;align=center;html=1;fontSize=12;fontStyle=0;aspect=fixed;pointerEvents=1;shape=mxgraph.aws4.cache_node;" parent="1" vertex="1">
          <mxGeometry x="817.75" y="301.9" width="60" height="60" as="geometry" />
        </mxCell>
        <mxCell id="rupW72BS5NqMa1Pwn7X4-9" value="" style="edgeStyle=orthogonalEdgeStyle;rounded=0;orthogonalLoop=1;jettySize=auto;html=1;" parent="1" source="rupW72BS5NqMa1Pwn7X4-6" target="rupW72BS5NqMa1Pwn7X4-8" edge="1">
          <mxGeometry relative="1" as="geometry" />
        </mxCell>
        <mxCell id="rupW72BS5NqMa1Pwn7X4-6" value="Seach-Service" style="whiteSpace=wrap;html=1;aspect=fixed;" parent="1" vertex="1">
          <mxGeometry x="300" y="-40" width="90" height="90" as="geometry" />
        </mxCell>
        <mxCell id="zoBhoHK8TqGWX4LXtrbE-1" style="edgeStyle=orthogonalEdgeStyle;rounded=0;orthogonalLoop=1;jettySize=auto;html=1;" edge="1" parent="1" source="rupW72BS5NqMa1Pwn7X4-8" target="jBRWnaGiVffGZK3ijvnU-10">
          <mxGeometry relative="1" as="geometry" />
        </mxCell>
        <mxCell id="rupW72BS5NqMa1Pwn7X4-8" value="Elastic-Serach" style="shape=hexagon;perimeter=hexagonPerimeter2;whiteSpace=wrap;html=1;fixedSize=1;" parent="1" vertex="1">
          <mxGeometry x="430" y="-35" width="120" height="80" as="geometry" />
        </mxCell>
        <mxCell id="rupW72BS5NqMa1Pwn7X4-12" value="Follow-Service" style="whiteSpace=wrap;html=1;aspect=fixed;" parent="1" vertex="1">
          <mxGeometry x="430" y="420" width="90" height="90" as="geometry" />
        </mxCell>
        <mxCell id="rupW72BS5NqMa1Pwn7X4-18" style="edgeStyle=orthogonalEdgeStyle;rounded=0;orthogonalLoop=1;jettySize=auto;html=1;" parent="1" source="rupW72BS5NqMa1Pwn7X4-15" target="jBRWnaGiVffGZK3ijvnU-14" edge="1">
          <mxGeometry relative="1" as="geometry" />
        </mxCell>
        <mxCell id="rupW72BS5NqMa1Pwn7X4-15" value="" style="sketch=0;outlineConnect=0;fontColor=#232F3E;gradientColor=none;fillColor=#E7157B;strokeColor=none;dashed=0;verticalLabelPosition=bottom;verticalAlign=top;align=center;html=1;fontSize=12;fontStyle=0;aspect=fixed;pointerEvents=1;shape=mxgraph.aws4.topic;" parent="1" vertex="1">
          <mxGeometry x="510" y="390" width="79.75" height="68.5" as="geometry" />
        </mxCell>
      </root>
    </mxGraphModel>
  </diagram>
</mxfile>
